<?xml version="1.0" standalone="no"?><!DOCTYPE svg PUBLIC "-//W3C//DTD SVG 1.1//EN" "http://www.w3.org/Graphics/SVG/1.1/DTD/svg11.dtd"><svg height="648" node-id="1" sillyvg="true" template-height="648" template-width="837" version="1.1" viewBox="0 0 837 648" width="837" xmlns="http://www.w3.org/2000/svg" xmlns:xlink="http://www.w3.org/1999/xlink"><defs node-id="140"></defs><path d="M 836.77 647.85 L 0.00 647.85 C 9.23 622.85 20.60 601.65 44.63 595.36 C 79.78 586.17 116.99 611.44 152.06 601.94 C 171.99 596.54 187.68 580.83 204.16 567.78 C 266.36 518.55 351.58 504.00 425.18 530.06 C 463.65 543.67 498.70 567.48 538.11 577.60 C 589.06 590.70 642.35 579.84 694.75 578.05 C 745.79 576.31 818.91 598.39 836.77 647.85 Z" fill="#f3f5fd" fill-rule="nonzero" node-id="142" stroke="none" target-height="143.84998" target-width="836.77" target-x="0" target-y="504"></path><g node-id="505"><g node-id="510"><path d="M 0.00 0.00 L 621.09 0.00 L 621.09 449.79 L 0.00 449.79 Z" fill="#dee8f5" fill-rule="nonzero" group-id="1,6" node-id="148" stroke="none" target-height="449.79" target-width="621.09" target-x="0" target-y="0"></path><path d="M 0.00 0.00 L 621.09 0.00 L 621.09 37.05 L 0.00 37.05 Z" fill="#c1d8ed" fill-rule="nonzero" group-id="1,6" node-id="150" stroke="none" target-height="37.05" target-width="621.09" target-x="0" target-y="0"></path><path d="M 609.58 18.53 C 609.58 23.66 605.42 27.82 600.28 27.82 C 595.15 27.82 590.99 23.66 590.99 18.53 C 590.99 13.39 595.15 9.23 600.28 9.23 C 605.42 9.23 609.58 13.39 609.58 18.53 Z" fill="#ffffff" fill-rule="nonzero" group-id="1,6" node-id="152" stroke="none" target-height="18.59" target-width="18.590027" target-x="590.99" target-y="9.23"></path></g><g node-id="511"><path d="M 435.72 81.52 L 521.52 81.52 L 521.52 371.46 L 435.72 371.46 Z" fill="#8ddbe0" fill-rule="nonzero" group-id="1,7" node-id="157" stroke="none" target-height="289.94" target-width="85.80002" target-x="435.72" target-y="81.52"></path><path d="M 42.33 343.63 L 435.72 343.63 L 435.72 369.90 L 42.33 369.90 Z" fill="#c1d8ed" fill-rule="nonzero" group-id="1,7" node-id="159" stroke="none" target-height="26.269989" target-width="393.39" target-x="42.33" target-y="343.63"></path><g node-id="524"><path d="M 42.32 69.12 L 521.52 69.12 L 521.52 93.92 L 42.32 93.92 Z" fill="#ffffff" fill-rule="nonzero" group-id="1,7,20" node-id="163" stroke="none" target-height="24.799995" target-width="479.2" target-x="42.32" target-y="69.12"></path><g node-id="544"><path d="M 42.32 69.12 L 42.32 371.46 L 521.52 371.46 L 521.52 69.12" fill="none" group-id="1,7,20,40" node-id="167" stroke="#ffffff" stroke-linecap="butt" stroke-width="2.813" target-height="302.34" target-width="479.2" target-x="42.32" target-y="69.12"></path><path d="M 122.27 81.52 L 122.27 371.46" fill="none" group-id="1,7,20,40" node-id="169" stroke="#ffffff" stroke-linecap="butt" stroke-width="2.813" target-height="289.94" target-width="0" target-x="122.27" target-y="81.52"></path><path d="M 521.52 120.19 L 42.33 120.19" fill="none" group-id="1,7,20,40" node-id="171" stroke="#ffffff" stroke-linecap="butt" stroke-width="2.813" target-height="0" target-width="479.19" target-x="42.33" target-y="120.19"></path><path d="M 521.52 148.10 L 42.33 148.10" fill="none" group-id="1,7,20,40" node-id="173" stroke="#ffffff" stroke-linecap="butt" stroke-width="2.813" target-height="0" target-width="479.19" target-x="42.33" target-y="148.1"></path><path d="M 521.52 176.00 L 42.33 176.00" fill="none" group-id="1,7,20,40" node-id="175" stroke="#ffffff" stroke-linecap="butt" stroke-width="2.813" target-height="0" target-width="479.19" target-x="42.33" target-y="176"></path><path d="M 521.52 203.91 L 42.33 203.91" fill="none" group-id="1,7,20,40" node-id="177" stroke="#ffffff" stroke-linecap="butt" stroke-width="2.813" target-height="0" target-width="479.19" target-x="42.33" target-y="203.91"></path><path d="M 521.52 231.81 L 42.33 231.81" fill="none" group-id="1,7,20,40" node-id="179" stroke="#ffffff" stroke-linecap="butt" stroke-width="2.813" target-height="0" target-width="479.19" target-x="42.33" target-y="231.81"></path><path d="M 521.52 259.72 L 42.33 259.72" fill="none" group-id="1,7,20,40" node-id="181" stroke="#ffffff" stroke-linecap="butt" stroke-width="2.813" target-height="0" target-width="479.19" target-x="42.33" target-y="259.72"></path><path d="M 521.52 287.62 L 42.33 287.62" fill="none" group-id="1,7,20,40" node-id="183" stroke="#ffffff" stroke-linecap="butt" stroke-width="2.813" target-height="0" target-width="479.19" target-x="42.33" target-y="287.62"></path><path d="M 521.52 315.53 L 42.33 315.53" fill="none" group-id="1,7,20,40" node-id="185" stroke="#ffffff" stroke-linecap="butt" stroke-width="2.813" target-height="0" target-width="479.19" target-x="42.33" target-y="315.53"></path><path d="M 521.52 343.44 L 42.33 343.44" fill="none" group-id="1,7,20,40" node-id="187" stroke="#ffffff" stroke-linecap="butt" stroke-width="2.813" target-height="0" target-width="479.19" target-x="42.33" target-y="343.44"></path><path d="M 347.60 81.52 L 347.60 371.46" fill="none" group-id="1,7,20,40" node-id="189" stroke="#ffffff" stroke-linecap="butt" stroke-width="2.813" target-height="289.94" target-width="0" target-x="347.6" target-y="81.52"></path><path d="M 435.72 81.52 L 435.72 371.46" fill="none" group-id="1,7,20,40" node-id="191" stroke="#ffffff" stroke-linecap="butt" stroke-width="2.813" target-height="289.94" target-width="0" target-x="435.72" target-y="81.52"></path></g></g></g></g><g node-id="506"><g node-id="512"><path d="M 696.08 174.67 C 696.08 202.01 673.92 224.17 646.58 224.17 C 619.24 224.17 597.08 202.01 597.08 174.67 C 597.08 147.33 619.24 125.17 646.58 125.17 C 673.92 125.17 696.08 147.33 696.08 174.67 Z" fill="#fdb754" fill-rule="nonzero" group-id="2,8" node-id="201" stroke="none" target-height="99" target-width="99" target-x="597.08" target-y="125.17"></path><g node-id="525"><path d="M 678.67 174.67 C 678.67 192.39 664.30 206.76 646.58 206.76 C 628.86 206.76 614.49 192.39 614.49 174.67 C 614.49 156.94 628.86 142.58 646.58 142.58 C 664.30 142.58 678.67 156.94 678.67 174.67 Z" fill="#ffffff" fill-opacity="0.29" fill-rule="nonzero" group-id="2,8,21" node-id="205" stroke="none" target-height="64.17999" target-width="64.17999" target-x="614.49" target-y="142.58"></path></g></g><path d="M 636.08 186.13 L 639.07 181.49 C 641.44 183.31 643.52 184.23 645.73 184.23 C 648.37 184.23 649.53 183.13 649.53 181.01 C 649.53 176.21 637.21 176.29 637.21 167.87 C 637.21 162.46 640.96 159.01 646.88 159.01 C 650.28 158.96 653.53 160.41 655.76 162.97 L 652.33 166.90 C 650.63 165.36 649.20 164.55 647.25 164.55 C 645.00 164.55 643.78 165.45 643.78 167.55 C 643.78 172.00 656.10 171.61 656.10 180.53 C 656.10 185.89 652.56 189.77 645.73 189.77 C 642.19 189.69 638.78 188.41 636.08 186.13 Z M 644.29 154.44 L 648.84 154.44 L 648.84 161.16 L 644.29 161.16 Z M 644.29 186.97 L 648.84 186.97 L 648.84 194.34 L 644.29 194.34 Z" fill="#ffffff" fill-rule="nonzero" group-id="2" node-id="209" stroke="none" target-height="39.899994" target-width="20.019958" target-x="636.08" target-y="154.44"></path></g><g node-id="507"><g node-id="513"><path d="M 613.38 264.56 L 613.98 268.22 L 614.09 271.77 L 613.73 275.25 L 612.92 278.65 L 611.71 281.86 L 610.08 284.90 L 608.08 287.72 L 605.76 290.24 L 603.07 292.49 L 600.13 294.37 L 596.90 295.86 L 593.36 296.96 L 589.70 297.56 L 586.14 297.67 L 582.67 297.31 L 579.26 296.50 L 576.05 295.28 L 573.01 293.66 L 570.19 291.66 L 567.67 289.33 L 565.42 286.65 L 563.54 283.70 L 562.05 280.48 L 560.95 276.93 L 560.35 273.27 L 560.24 269.72 L 560.61 266.24 L 561.42 262.84 L 562.63 259.63 L 564.26 256.58 L 566.25 253.77 L 568.58 251.25 L 571.26 249.00 L 574.21 247.12 L 577.44 245.63 L 580.98 244.53 L 584.64 243.93 L 588.19 243.82 L 591.67 244.18 L 595.07 244.99 L 598.28 246.21 L 601.33 247.83 L 604.14 249.83 L 606.67 252.16 L 608.91 254.84 L 610.79 257.79 L 612.28 261.01 L 613.38 264.56 Z" fill="#c1d8ed" fill-rule="nonzero" group-id="3,9" node-id="216" stroke="none" target-height="53.850006" target-width="53.850037" target-x="560.24" target-y="243.82"></path></g><path d="M 569.33 263.97 C 569.33 259.88 572.01 256.71 576.44 256.71 C 580.84 256.71 583.56 259.91 583.56 263.97 C 583.56 268.00 580.88 271.30 576.44 271.30 C 572.01 271.30 569.33 268.00 569.33 263.97 Z M 578.36 263.97 C 578.36 262.55 577.78 261.43 576.44 261.43 C 575.13 261.43 574.50 262.58 574.50 263.97 C 574.50 265.39 575.10 266.58 576.44 266.58 C 577.78 266.58 578.36 265.39 578.36 263.97 Z M 593.36 257.98 L 593.36 257.98 C 594.22 257.90 595.06 258.30 595.54 259.02 C 596.02 259.74 596.07 260.66 595.67 261.43 L 583.07 282.73 C 582.57 283.53 581.69 284.00 580.76 283.98 L 580.76 283.98 C 579.89 284.06 579.06 283.66 578.57 282.94 C 578.09 282.22 578.04 281.30 578.44 280.53 L 591.04 259.23 C 591.54 258.44 592.42 257.96 593.36 257.98 Z M 590.74 277.50 C 590.74 273.41 593.46 270.21 597.89 270.21 C 602.29 270.21 605.01 273.41 605.01 277.50 C 605.01 281.53 602.30 284.79 597.89 284.79 C 593.42 284.79 590.74 281.52 590.74 277.50 Z M 599.81 277.50 C 599.81 276.08 599.20 274.93 597.89 274.93 C 596.55 274.93 595.95 276.08 595.95 277.50 C 595.95 278.89 596.55 280.07 597.89 280.07 C 599.23 280.07 599.81 278.88 599.81 277.50 Z" fill="#ffffff" fill-rule="nonzero" group-id="3" node-id="219" stroke="none" target-height="28.080017" target-width="35.679993" target-x="569.33" target-y="256.71"></path></g><g node-id="508"><g node-id="514"><g node-id="526"><path d="M 733.14 492.90 L 738.94 491.37 L 779.65 646.11 L 773.84 647.64 Z" fill="#c1d8ed" fill-rule="nonzero" group-id="4,10,22" node-id="228" stroke="none" target-height="156.27002" target-width="46.51001" target-x="733.14" target-y="491.37"></path></g><g node-id="527"><path d="M 642.65 646.43 L 666.93 491.67 L 672.86 492.60 L 648.58 647.36 Z" fill="#c1d8ed" fill-rule="nonzero" group-id="4,10,23" node-id="233" stroke="none" target-height="155.68997" target-width="30.20996" target-x="642.65" target-y="491.67"></path></g><path d="M 744.39 343.70 C 744.39 343.70 793.96 340.57 793.96 383.87 C 793.96 427.18 786.66 487.70 750.13 494.48 C 713.61 501.26 659.65 499.22 647.12 497.10 C 631.73 494.49 625.02 458.79 645.52 456.40 C 703.70 449.62 675.52 348.40 744.39 343.70 Z" fill="#c1d8ed" fill-rule="nonzero" group-id="4,10" node-id="236" stroke="none" target-height="160.69" target-width="168.94" target-x="625.02" target-y="340.57"></path></g><g node-id="515"><path d="M 564.50 400.30 C 564.76 400.29 626.95 400.42 627.08 400.42 C 635.80 400.42 639.17 405.48 639.17 405.48 L 639.17 408.20 L 554.14 408.20 L 554.14 405.48 C 557.98 402.88 561.47 400.22 564.50 400.30 Z" fill="#dee8f5" fill-rule="nonzero" group-id="4,11" node-id="241" stroke="none" target-height="7.980011" target-width="85.02997" target-x="554.14" target-y="400.22"></path><path d="M 576.35 406.15 C 576.35 406.15 571.87 399.71 564.50 400.30 C 560.46 400.45 556.68 402.34 554.14 405.48 L 554.14 408.21 L 600.43 408.21 L 600.43 405.48 C 600.43 405.48 597.06 400.43 588.33 400.43 C 579.61 400.43 576.35 406.15 576.35 406.15 Z" fill="#c1d8ed" fill-rule="nonzero" group-id="4,11" node-id="243" stroke="none" target-height="8.5" target-width="46.289978" target-x="554.14" target-y="399.71"></path><g node-id="528"><path d="M 639.17 408.21 L 600.43 408.21 L 600.43 405.48 L 639.17 405.48 Z" fill="#c1d8ed" fill-rule="nonzero" group-id="4,11,24" node-id="247" stroke="none" target-height="2.7299805" target-width="38.73999" target-x="600.43" target-y="405.48"></path></g></g><g node-id="516"><g node-id="529"><path d="M 628.71 618.54 L 649.64 616.92 L 651.53 641.38 L 630.59 642.99 Z" fill="#eda59f" fill-rule="nonzero" group-id="4,12,25" node-id="255" stroke="none" target-height="26.070007" target-width="22.820007" target-x="628.71" target-y="616.92"></path></g><path d="M 603.98 646.69 C 601.71 646.68 599.88 644.83 599.89 642.57 C 599.89 642.47 599.89 642.37 599.91 642.26 L 599.91 642.26 C 600.03 640.67 601.07 639.30 602.57 638.74 L 627.01 630.55 C 627.97 630.23 629.02 630.35 629.88 630.87 C 633.24 633.20 637.26 634.39 641.35 634.27 C 644.53 634.04 647.59 632.93 650.17 631.05 C 650.63 630.67 651.27 630.59 651.81 630.84 C 652.35 631.10 652.70 631.65 652.70 632.25 L 652.70 644.20 C 652.70 645.68 651.50 646.88 650.02 646.88 L 650.01 646.88 Z" fill="#c1d8ed" fill-rule="nonzero" group-id="4,12" node-id="258" stroke="none" target-height="16.650024" target-width="52.820007" target-x="599.88" target-y="630.23"></path><path d="M 541.40 640.44 L 545.51 615.99 L 566.22 619.47 L 562.11 643.93 Z" fill="#eda59f" fill-rule="nonzero" group-id="4,12,26" node-id="262" stroke="none" target-height="27.940002" target-width="24.819946" target-x="541.4" target-y="615.99"></path><path d="M 534.81 621.35 L 580.92 443.96 C 583.04 435.81 590.40 430.12 598.82 430.12 L 699.87 430.12 L 699.87 430.18 L 756.48 430.18 L 756.48 447.53 C 756.48 468.56 739.43 485.62 718.39 485.62 L 690.78 485.62 L 690.78 485.73 L 642.58 485.73 L 655.86 626.84 L 619.02 630.30 L 606.18 493.85 L 570.62 630.65 Z" fill="#55affc" fill-rule="nonzero" group-id="4,12" node-id="265" stroke="none" target-height="200.53003" target-width="221.66998" target-x="534.81" target-y="430.12"></path><path d="M 517.68 646.69 C 515.41 646.68 513.58 644.83 513.59 642.56 C 513.59 642.46 513.59 642.36 513.60 642.26 L 513.60 642.26 C 513.73 640.67 514.76 639.29 516.26 638.73 L 540.70 630.55 C 541.66 630.23 542.71 630.35 543.58 630.87 C 546.94 633.20 550.96 634.39 555.04 634.27 C 558.23 634.04 561.28 632.92 563.87 631.04 C 564.33 630.66 564.97 630.59 565.51 630.84 C 566.05 631.10 566.39 631.65 566.39 632.24 L 566.39 644.20 C 566.39 645.68 565.19 646.88 563.71 646.88 L 563.70 646.88 Z" fill="#c1d8ed" fill-rule="nonzero" group-id="4,12" node-id="267" stroke="none" target-height="16.650024" target-width="52.809998" target-x="513.58" target-y="630.23"></path></g><g node-id="517"><g node-id="531"><path d="M 611.80 345.40 C 611.80 345.40 611.65 333.39 603.07 334.01 C 597.65 334.41 571.91 333.21 571.53 335.56 C 570.58 341.36 594.12 342.78 596.26 348.18 Z" fill="#eda59f" fill-rule="nonzero" group-id="4,13,27" node-id="274" stroke="none" target-height="14.970001" target-width="41.21997" target-x="570.58" target-y="333.21"></path><path d="M 606.11 334.40 C 606.11 334.40 594.16 330.50 591.22 331.20 C 588.62 331.82 594.04 336.05 594.04 336.05 Z" fill="#eda59f" fill-rule="nonzero" group-id="4,13,27" node-id="276" stroke="none" target-height="5.549988" target-width="17.48999" target-x="588.62" target-y="330.5"></path></g><path d="M 636.49 408.23 L 672.81 408.23 C 670.67 419.77 667.94 424.61 670.75 431.07 C 674.94 440.70 757.27 444.70 758.37 427.76 C 759.07 416.98 749.57 407.56 749.57 386.56 C 749.57 365.56 768.90 338.72 753.15 322.97 C 748.59 318.41 740.69 315.45 731.07 315.44 C 730.35 321.05 696.28 321.07 696.02 315.57 C 694.72 315.59 693.71 315.62 693.08 315.64 C 681.34 316.14 675.59 321.20 673.06 328.75 L 646.36 376.55 L 612.23 338.14 L 593.85 348.47 L 636.49 398.11 Z M 674.81 382.56 C 674.83 383.89 674.82 385.17 674.81 386.42 L 665.83 386.42 L 674.13 371.56 C 674.50 375.33 674.77 379.02 674.82 382.56 Z" fill="#2f3235" fill-rule="nonzero" group-id="4,13" node-id="279" stroke="none" target-height="129.26001" target-width="175.05005" target-x="593.85" target-y="315.44"></path><path d="M 696.02 315.57 C 696.28 321.07 699.28 329.16 708.50 329.76 C 720.81 330.58 730.35 321.05 731.07 315.44 L 731.03 315.44 C 718.93 315.44 703.09 315.46 696.02 315.57 Z" fill="#eda59f" fill-rule="nonzero" group-id="4,13" node-id="281" stroke="none" target-height="15.139984" target-width="35.049988" target-x="696.02" target-y="315.44"></path><path d="M 621.72 402.99 C 623.67 404.52 632.11 405.00 636.49 405.15 L 636.49 388.92 C 634.26 387.72 631.48 386.17 629.41 384.85 C 626.54 383.01 625.24 382.48 624.52 382.68 L 624.51 382.68 C 624.34 382.73 624.19 382.83 624.07 382.96 C 623.97 383.07 623.90 383.19 623.85 383.33 C 623.38 384.60 625.53 386.51 626.72 387.45 L 626.73 387.46 C 627.16 387.80 627.47 388.02 627.47 388.02 L 624.93 389.19 L 624.92 389.20 L 622.70 390.23 L 622.67 390.24 L 621.47 390.79 C 621.47 390.79 621.26 391.67 621.03 392.96 L 621.03 392.97 C 620.49 396.06 619.84 401.52 621.72 402.99 Z" fill="#eda59f" fill-rule="nonzero" group-id="4,13,28" node-id="285" stroke="none" target-height="22.669983" target-width="16.649963" target-x="619.84" target-y="382.48"></path><path d="M 607.31 403.01 L 612.47 401.25 L 627.67 386.54 L 629.74 384.53 L 633.42 380.96 L 629.97 377.41 L 626.25 381.01 L 624.18 383.01 L 609.03 397.69 L 607.31 403.01 Z" fill="#fdb754" fill-rule="nonzero" group-id="4,13,28,41" node-id="289" stroke="none" target-height="25.600006" target-width="26.109985" target-x="607.31" target-y="377.41"></path><path d="M 624.18 383.01 L 627.67 386.54 L 629.74 384.53 L 626.25 381.01 L 624.18 383.01 Z" fill="#ffffff" fill-rule="nonzero" group-id="4,13,28,41" node-id="291" stroke="none" target-height="5.529999" target-width="5.5599976" target-x="624.18" target-y="381.01"></path><path d="M 625.93 387.70 C 624.63 387.72 623.32 387.83 622.03 388.02 C 620.69 388.20 619.38 388.49 618.10 388.91 C 617.39 389.13 616.70 389.43 616.05 389.78 C 615.68 389.98 615.33 390.21 615.00 390.47 L 614.26 391.11 C 613.29 391.98 612.41 392.94 611.62 393.98 C 611.18 394.57 611.23 395.39 611.74 395.93 C 612.24 396.46 613.06 396.56 613.67 396.15 L 613.75 396.10 L 616.65 394.16 L 617.37 393.68 C 617.54 393.59 617.71 393.50 617.89 393.43 C 618.34 393.25 618.80 393.10 619.27 393.01 C 620.35 392.78 621.45 392.62 622.55 392.54 C 623.68 392.45 624.88 392.38 625.97 392.36 L 626.02 392.36 C 627.31 392.34 628.33 391.28 628.31 389.99 C 628.29 388.70 627.22 387.68 625.94 387.70 Z" fill="#eda59f" fill-rule="nonzero" group-id="4,13,28" node-id="294" stroke="none" target-height="8.880005" target-width="17.150024" target-x="611.18" target-y="387.68"></path></g><path d="M 523.49 417.92 L 532.88 417.92 L 532.88 646.88 L 523.49 646.88 Z" fill="#c1d8ed" fill-rule="nonzero" group-id="4" node-id="298" stroke="none" target-height="228.95999" target-width="9.390015" target-x="523.49" target-y="417.92"></path><path d="M 723.41 418.51 L 732.80 418.51 L 732.80 647.47 L 723.41 647.47 Z" fill="#c1d8ed" fill-rule="nonzero" group-id="4,14" node-id="302" stroke="none" target-height="228.95996" target-width="9.390015" target-x="723.41" target-y="418.51"></path><path d="M 804.38 417.92 L 813.77 417.92 L 813.77 646.88 L 804.38 646.88 Z" fill="#c1d8ed" fill-rule="nonzero" group-id="4,14" node-id="304" stroke="none" target-height="228.95999" target-width="9.390015" target-x="804.38" target-y="417.92"></path><path d="M 523.49 417.92 L 532.88 417.92 L 532.88 646.88 L 523.49 646.88 Z" fill="#000000" fill-opacity="0.05" fill-rule="nonzero" group-id="4,14,29" node-id="308" stroke="none" target-height="228.95999" target-width="9.390015" target-x="523.49" target-y="417.92"></path><path d="M 804.38 417.92 L 813.77 417.92 L 813.77 646.88 L 804.38 646.88 Z" fill="#000000" fill-opacity="0.05" fill-rule="nonzero" group-id="4,14,30" node-id="313" stroke="none" target-height="228.95999" target-width="9.390015" target-x="804.38" target-y="417.92"></path><path d="M 443.49 417.92 L 452.88 417.92 L 452.88 646.88 L 443.49 646.88 Z" fill="#c1d8ed" fill-rule="nonzero" group-id="4,14" node-id="316" stroke="none" target-height="228.95999" target-width="9.390015" target-x="443.49" target-y="417.92"></path><path d="M 430.50 408.46 L 826.75 408.46 L 826.75 421.38 L 430.50 421.38 Z" fill="#c1d8ed" fill-rule="nonzero" group-id="4,14" node-id="318" stroke="none" target-height="12.920013" target-width="396.25" target-x="430.5" target-y="408.46"></path><path d="M 528.96 350.67 L 541.10 401.64 C 541.48 403.25 541.11 404.94 540.08 406.24 C 539.06 407.53 537.50 408.29 535.85 408.29 L 464.27 408.29 C 461.84 408.29 459.71 406.66 459.06 404.32 L 445.07 353.35 C 444.63 351.73 444.96 349.99 445.98 348.65 C 447.01 347.31 448.59 346.52 450.28 346.52 L 523.71 346.52 C 526.21 346.52 528.38 348.24 528.96 350.67 Z" fill="#9ebcea" fill-rule="nonzero" group-id="4,15,31" node-id="325" stroke="none" target-height="61.77002" target-width="96.849976" target-x="444.63" target-y="346.52"></path><path d="M 566.59 408.29 L 480.07 408.29 C 478.32 408.29 476.90 406.87 476.90 405.12 L 476.90 405.12 C 476.90 403.37 478.32 401.95 480.07 401.95 L 566.59 401.95 C 568.34 401.95 569.76 403.37 569.76 405.12 L 569.76 405.12 C 569.76 406.87 568.34 408.29 566.59 408.29 Z" fill="#9ebcea" fill-rule="nonzero" group-id="4,15,31" node-id="327" stroke="none" target-height="6.3399963" target-width="92.860016" target-x="476.9" target-y="401.95"></path><path d="M 498.62 376.90 C 498.62 381.58 494.83 385.37 490.16 385.37 C 485.48 385.37 481.69 381.58 481.69 376.90 C 481.69 372.23 485.48 368.44 490.16 368.44 C 494.83 368.44 498.62 372.23 498.62 376.90 Z" fill="#ffffff" fill-rule="nonzero" group-id="4,15" node-id="330" stroke="none" target-height="16.929993" target-width="16.929993" target-x="481.69" target-y="368.44"></path><path d="M 687.34 260.25 C 687.34 260.25 679.76 287.41 675.51 301.50 C 675.10 302.85 675.35 304.32 676.20 305.46 C 677.04 306.59 678.37 307.26 679.79 307.26 L 706.39 307.26 C 708.77 307.26 710.74 305.38 710.85 303.00 L 712.65 265.19 Z" fill="#0f1011" fill-rule="nonzero" group-id="4,16" node-id="335" stroke="none" target-height="47.01001" target-width="37.55005" target-x="675.1" target-y="260.25"></path><path d="M 728.11 320.66 C 728.11 320.66 720.37 316.57 722.08 295.51 L 706.10 292.56 C 706.10 292.56 707.91 311.44 699.84 317.44 Z" fill="#eda59f" fill-rule="nonzero" group-id="4,16" node-id="337" stroke="none" target-height="28.100006" target-width="28.269958" target-x="699.84" target-y="292.56"></path><path d="M 703.11 313.49 L 716.37 303.33 L 705.95 303.23 C 705.65 306.79 704.68 310.28 703.11 313.49 Z" fill="#000000" fill-opacity="0.15" fill-rule="nonzero" group-id="4,16,32" node-id="341" stroke="none" target-height="10.259979" target-width="13.26001" target-x="703.11" target-y="303.23"></path><path d="M 731.14 287.34 C 730.04 293.73 726.56 299.78 720.92 301.85 C 714.78 304.29 708.14 305.20 701.57 304.48 C 684.08 303.06 687.50 263.29 695.80 255.56 C 704.10 247.83 728.47 252.70 731.45 265.62 C 732.98 272.30 732.19 281.26 731.14 287.34 Z" fill="#eda59f" fill-rule="nonzero" group-id="4,16" node-id="344" stroke="none" target-height="57.37001" target-width="48.899963" target-x="684.08" target-y="247.83"></path><path d="M 707.56 280.99 C 707.56 281.79 706.91 282.44 706.11 282.44 C 705.31 282.44 704.66 281.79 704.66 280.99 C 704.66 280.19 705.31 279.54 706.11 279.54 C 706.91 279.54 707.56 280.19 707.56 280.99 Z" fill="#0f1011" fill-rule="nonzero" group-id="4,16,33" node-id="348" stroke="none" target-height="2.899994" target-width="2.9000244" target-x="704.66" target-y="279.54"></path><path d="M 696.13 280.06 C 696.13 280.86 695.48 281.51 694.68 281.51 C 693.88 281.51 693.23 280.86 693.23 280.06 C 693.23 279.26 693.88 278.62 694.68 278.62 C 695.48 278.62 696.13 279.26 696.13 280.06 Z" fill="#0f1011" fill-rule="nonzero" group-id="4,16,33" node-id="350" stroke="none" target-height="2.8900146" target-width="2.9000244" target-x="693.23" target-y="278.62"></path><path d="M 692.17 276.98 L 692.18 276.98 L 696.02 276.93 C 696.39 276.92 696.69 276.61 696.69 276.24 C 696.68 275.86 696.37 275.56 696.00 275.56 L 692.16 275.62 C 691.78 275.62 691.48 275.93 691.48 276.30 C 691.48 276.68 691.79 276.98 692.17 276.98 Z" fill="#0f1011" fill-rule="nonzero" group-id="4,16,33" node-id="352" stroke="none" target-height="1.4200134" target-width="5.210022" target-x="691.48" target-y="275.56"></path><path d="M 709.24 278.36 C 709.58 278.36 709.87 278.10 709.91 277.76 C 709.95 277.42 709.73 277.10 709.40 277.02 L 705.61 276.11 C 705.37 276.05 705.12 276.12 704.95 276.30 C 704.78 276.48 704.71 276.73 704.79 276.97 C 704.86 277.21 705.05 277.38 705.29 277.44 L 709.08 278.34 C 709.13 278.36 709.18 278.36 709.24 278.36 Z" fill="#0f1011" fill-rule="nonzero" group-id="4,16,33" node-id="354" stroke="none" target-height="2.3099976" target-width="5.23999" target-x="704.71" target-y="276.05"></path><path d="M 705.45 292.40 C 705.45 292.40 700.11 292.97 696.35 291.66 C 696.35 291.66 696.39 295.19 700.62 295.53 C 704.85 295.87 705.45 292.40 705.45 292.40 Z" fill="#ffffff" fill-rule="nonzero" group-id="4,16,33" node-id="356" stroke="none" target-height="4.2099915" target-width="9.100037" target-x="696.35" target-y="291.66"></path><path d="M 699.69 289.03 C 699.94 289.03 700.15 288.85 700.18 288.61 C 700.22 288.36 700.07 288.13 699.84 288.06 L 696.89 287.16 L 698.95 282.56 C 699.04 282.31 698.93 282.03 698.68 281.92 C 698.44 281.81 698.15 281.92 698.03 282.15 L 695.51 287.78 L 699.54 289.01 C 699.59 289.03 699.64 289.03 699.69 289.03 Z" fill="#000000" fill-opacity="0.15" fill-rule="nonzero" group-id="4,16,34" node-id="361" stroke="none" target-height="7.220001" target-width="4.709961" target-x="695.51" target-y="281.81"></path><path d="M 686.43 263.50 C 686.43 263.50 688.99 242.79 722.18 247.87 C 730.46 249.14 742.18 255.60 744.08 276.77 C 744.95 286.49 748.30 295.64 750.85 301.44 C 751.47 302.82 751.34 304.42 750.52 305.69 C 749.69 306.96 748.28 307.72 746.77 307.73 L 723.44 307.73 C 722.25 307.74 721.12 307.27 720.28 306.43 C 719.44 305.60 718.97 304.46 718.97 303.28 C 718.97 303.21 718.97 303.15 718.97 303.08 C 719.13 299.11 719.27 292.38 719.04 282.11 C 717.83 276.24 721.06 272.11 716.37 273.45 C 698.96 278.46 687.74 263.84 686.43 263.50 Z" fill="#0f1011" fill-rule="nonzero" group-id="4,16" node-id="364" stroke="none" target-height="64.95" target-width="65.03998" target-x="686.43" target-y="242.79"></path><path d="M 713.44 287.23 C 713.16 290.61 715.68 293.58 719.06 293.85 C 722.44 294.12 725.41 291.60 725.68 288.22 C 726.01 284.90 723.58 281.95 720.26 281.62 C 720.19 281.62 720.12 281.61 720.06 281.61 C 715.68 281.46 713.71 283.85 713.44 287.23 Z" fill="#eda59f" fill-rule="nonzero" group-id="4,16" node-id="366" stroke="none" target-height="12.660004" target-width="12.850037" target-x="713.16" target-y="281.46"></path></g><g node-id="509"><g node-id="521"><path d="M 144.89 637.03 L 124.04 634.55 C 124.98 626.65 126.04 617.17 126.11 615.62 C 126.11 615.72 126.11 615.80 126.11 615.87 L 147.11 615.87 C 147.11 616.50 147.11 618.41 144.89 637.03 Z" fill="#eda59f" fill-rule="nonzero" group-id="5,17" node-id="374" stroke="none" target-height="21.410034" target-width="23.07" target-x="124.04" target-y="615.62"></path><path d="M 61.22 639.54 L 40.22 639.47 C 40.22 639.47 40.29 617.78 40.29 615.87 L 61.29 615.87 C 61.29 617.79 61.22 639.54 61.22 639.54 Z" fill="#eda59f" fill-rule="nonzero" group-id="5,17" node-id="376" stroke="none" target-height="23.669983" target-width="21.07" target-x="40.22" target-y="615.87"></path><path d="M 115.65 630.40 L 152.64 629.77 C 151.10 590.81 150.84 546.24 150.43 505.91 C 146.78 453.05 138.87 400.71 130.32 348.36 L 130.05 348.44 L 129.27 343.11 L 53.19 338.42 C 47.99 395.62 42.49 511.52 34.80 629.21 L 71.67 632.32 C 78.32 564.53 88.60 465.76 94.92 394.55 C 113.07 472.16 117.22 551.18 115.65 630.40 Z" fill="#55affc" fill-rule="nonzero" group-id="5,17" node-id="378" stroke="none" target-height="293.9" target-width="117.84" target-x="34.8" target-y="338.42"></path><path d="M 86.75 647.66 C 91.19 647.76 92.37 641.14 88.16 639.70 C 86.45 639.60 61.84 629.62 60.85 631.84 C 47.47 641.21 38.85 627.81 38.03 633.22 L 38.03 645.17 C 38.03 645.88 38.32 646.56 38.82 647.07 C 39.33 647.57 40.01 647.85 40.72 647.85 Z" fill="#c1d8ed" fill-rule="nonzero" group-id="5,17" node-id="380" stroke="none" target-height="20.039978" target-width="54.340004" target-x="38.03" target-y="627.81"></path><path d="M 170.48 647.66 C 174.93 647.76 176.10 641.14 171.90 639.70 C 170.18 639.60 145.58 629.62 144.58 631.84 C 131.20 641.21 122.59 627.81 121.77 633.22 L 121.77 645.17 C 121.77 645.88 122.05 646.56 122.56 647.07 C 123.06 647.57 123.74 647.85 124.46 647.85 Z" fill="#c1d8ed" fill-rule="nonzero" group-id="5,17" node-id="382" stroke="none" target-height="20.039978" target-width="54.33001" target-x="121.77" target-y="627.81"></path></g><g node-id="522"><g node-id="539"><path d="M 151.53 309.75 C 158.03 308.85 175.80 309.00 158.41 314.15" fill="#eda59f" fill-rule="nonzero" group-id="5,18,35" node-id="389" stroke="none" target-height="5.299988" target-width="24.270004" target-x="151.53" target-y="308.85"></path><path d="M 149.92 322.09 C 149.92 322.09 170.68 330.62 182.62 320.89 C 183.23 320.37 183.47 319.54 183.22 318.78 C 182.98 318.03 182.30 317.49 181.50 317.43 C 173.46 316.95 156.94 315.33 158.87 310.03 L 145.89 310.03" fill="#eda59f" fill-rule="nonzero" group-id="5,18,35" node-id="391" stroke="none" target-height="20.589996" target-width="37.58" target-x="145.89" target-y="310.03"></path></g><path d="M 166.92 298.51 C 170.87 298.50 174.49 296.33 176.36 292.86 L 204.91 239.55 L 186.03 229.44 L 164.12 270.36 L 128.36 236.34 L 115.40 253.58 C 119.87 256.27 161.34 301.32 166.92 298.51 Z" fill="#2f3235" fill-rule="nonzero" group-id="5,18" node-id="394" stroke="none" target-height="71.880005" target-width="89.51" target-x="115.4" target-y="229.44"></path><path d="M 135.78 348.76 C 131.51 358.58 49.56 362.66 48.44 345.38 C 47.73 334.39 52.41 324.80 52.41 303.37 C 49.55 274.00 27.32 232.29 74.28 230.86 C 75.01 236.58 109.74 236.60 110.00 230.99 C 146.80 229.81 132.46 269.84 131.64 299.31 C 131.24 332.40 140.19 338.64 135.78 348.76 Z" fill="#2f3235" fill-rule="nonzero" group-id="5,18" node-id="396" stroke="none" target-height="132.85" target-width="119.48" target-x="27.32" target-y="229.81"></path><path d="M 110.00 230.99 C 109.27 254.51 76.51 245.12 74.27 230.86 C 86.62 230.86 102.80 230.88 110.00 230.99 Z" fill="#eda59f" fill-rule="nonzero" group-id="5,18" node-id="398" stroke="none" target-height="23.649994" target-width="35.730003" target-x="74.27" target-y="230.86"></path><path d="M 90.04 331.00 C 90.28 331.01 154.16 329.05 154.45 329.04 L 153.77 306.82 L 96.94 308.55 L 66.96 245.81 L 46.90 255.40 L 80.01 324.68 C 81.85 328.54 85.76 331.00 90.04 331.00 Z" fill="#2f3235" fill-rule="nonzero" group-id="5,18" node-id="400" stroke="none" target-height="85.20001" target-width="107.549995" target-x="46.9" target-y="245.81"></path><path d="M 208.93 228.14 L 201.60 237.78 L 187.09 230.00 C 189.69 226.04 196.00 220.90 196.00 220.90 Z" fill="#eda59f" fill-rule="nonzero" group-id="5,18" node-id="402" stroke="none" target-height="16.880005" target-width="21.839996" target-x="187.09" target-y="220.9"></path><path d="M 208.14 190.61 L 250.38 197.58 L 251.57 198.03 L 252.45 198.86 L 252.95 199.96 L 253.00 201.23 L 243.87 256.56 L 243.42 257.75 L 242.59 258.62 L 241.49 259.13 L 240.22 259.18 L 197.97 252.21 L 196.79 251.75 L 195.91 250.92 L 195.40 249.82 L 195.36 248.55 L 204.48 193.23 L 204.94 192.04 L 205.77 191.16 L 206.87 190.65 L 208.14 190.61 Z" fill="#55affc" fill-rule="nonzero" group-id="5,18,36,42" node-id="408" stroke="none" target-height="68.56999" target-width="57.64" target-x="195.36" target-y="190.61"></path><path d="M 209.69 196.36 L 247.06 202.52 L 247.48 202.68 L 247.79 202.98 L 247.97 203.36 L 247.99 203.81 L 246.94 210.14 L 246.78 210.56 L 246.49 210.87 L 246.10 211.05 L 245.65 211.06 L 208.28 204.90 L 207.86 204.74 L 207.55 204.44 L 207.37 204.06 L 207.36 203.61 L 208.40 197.28 L 208.56 196.86 L 208.85 196.55 L 209.24 196.37 L 209.69 196.36 Z" fill="#ffffff" fill-rule="nonzero" group-id="5,18,36,43" node-id="413" stroke="none" target-height="14.699997" target-width="40.630005" target-x="207.36" target-y="196.36"></path><path d="M 209.15 208.54 L 216.38 209.73 L 217.07 210.00 L 217.59 210.48 L 217.88 211.12 L 217.91 211.86 L 217.18 216.30 L 216.91 216.99 L 216.43 217.50 L 215.79 217.80 L 215.05 217.83 L 207.82 216.63 L 207.12 216.37 L 206.61 215.88 L 206.32 215.24 L 206.29 214.50 L 207.02 210.07 L 207.29 209.37 L 207.77 208.86 L 208.41 208.57 L 209.15 208.54 Z" fill="#fd5d76" fill-rule="nonzero" group-id="5,18,36,44" node-id="418" stroke="none" target-height="9.290009" target-width="11.62001" target-x="206.29" target-y="208.54"></path><path d="M 222.79 210.79 L 230.02 211.98 L 230.71 212.25 L 231.23 212.73 L 231.52 213.37 L 231.55 214.11 L 230.82 218.55 L 230.55 219.24 L 230.07 219.75 L 229.43 220.05 L 228.69 220.08 L 221.46 218.88 L 220.76 218.62 L 220.25 218.14 L 219.96 217.50 L 219.93 216.75 L 220.66 212.32 L 220.93 211.62 L 221.41 211.11 L 222.05 210.82 L 222.79 210.79 Z" fill="#ffffff" fill-opacity="0.29" fill-rule="nonzero" group-id="5,18,36,45" node-id="423" stroke="none" target-height="9.290009" target-width="11.62001" target-x="219.93" target-y="210.79"></path><path d="M 236.43 213.04 L 243.66 214.23 L 244.35 214.50 L 244.86 214.98 L 245.16 215.62 L 245.19 216.36 L 244.45 220.80 L 244.19 221.49 L 243.71 222.00 L 243.07 222.30 L 242.32 222.33 L 235.09 221.13 L 234.40 220.87 L 233.89 220.38 L 233.60 219.74 L 233.57 219.00 L 234.30 214.57 L 234.56 213.87 L 235.05 213.36 L 235.69 213.07 L 236.43 213.04 Z" fill="#ffffff" fill-opacity="0.29" fill-rule="nonzero" group-id="5,18,36,46" node-id="428" stroke="none" target-height="9.290009" target-width="11.619995" target-x="233.57" target-y="213.04"></path><path d="M 207.43 218.99 L 214.66 220.19 L 215.35 220.45 L 215.86 220.94 L 216.16 221.58 L 216.18 222.32 L 215.45 226.75 L 215.19 227.45 L 214.70 227.96 L 214.06 228.25 L 213.32 228.28 L 206.09 227.09 L 205.40 226.82 L 204.89 226.34 L 204.59 225.70 L 204.56 224.96 L 205.30 220.52 L 205.56 219.83 L 206.05 219.32 L 206.69 219.02 L 207.43 218.99 Z" fill="#ffffff" fill-opacity="0.29" fill-rule="nonzero" group-id="5,18,36,47" node-id="433" stroke="none" target-height="9.289993" target-width="11.619995" target-x="204.56" target-y="218.99"></path><path d="M 221.07 221.25 L 228.30 222.44 L 228.99 222.70 L 229.50 223.19 L 229.80 223.83 L 229.82 224.57 L 229.09 229.01 L 228.83 229.70 L 228.34 230.21 L 227.70 230.50 L 226.96 230.53 L 219.73 229.34 L 219.04 229.07 L 218.53 228.59 L 218.23 227.95 L 218.20 227.21 L 218.94 222.77 L 219.20 222.08 L 219.69 221.57 L 220.33 221.27 L 221.07 221.25 Z" fill="#ffffff" fill-opacity="0.29" fill-rule="nonzero" group-id="5,18,36,48" node-id="438" stroke="none" target-height="9.279999" target-width="11.62001" target-x="218.2" target-y="221.25"></path><path d="M 234.74 223.62 L 241.97 224.81 L 242.66 225.08 L 243.18 225.56 L 243.47 226.20 L 243.50 226.95 L 242.76 231.38 L 242.50 232.08 L 242.02 232.59 L 241.37 232.88 L 240.63 232.91 L 233.40 231.72 L 232.71 231.45 L 232.20 230.97 L 231.90 230.33 L 231.87 229.59 L 232.61 225.15 L 232.87 224.45 L 233.36 223.94 L 234.00 223.65 L 234.74 223.62 Z" fill="#ffffff" fill-opacity="0.29" fill-rule="nonzero" group-id="5,18,36,49" node-id="443" stroke="none" target-height="9.290009" target-width="11.630005" target-x="231.87" target-y="223.62"></path><path d="M 205.70 229.45 L 212.93 230.64 L 213.62 230.91 L 214.14 231.39 L 214.43 232.03 L 214.46 232.77 L 213.73 237.21 L 213.46 237.90 L 212.98 238.41 L 212.34 238.71 L 211.60 238.74 L 204.37 237.54 L 203.67 237.28 L 203.16 236.80 L 202.87 236.16 L 202.84 235.41 L 203.57 230.98 L 203.84 230.28 L 204.32 229.77 L 204.96 229.48 L 205.70 229.45 Z" fill="#ffffff" fill-opacity="0.29" fill-rule="nonzero" group-id="5,18,36,50" node-id="448" stroke="none" target-height="9.290009" target-width="11.62001" target-x="202.84" target-y="229.45"></path><path d="M 219.34 231.70 L 226.57 232.89 L 227.26 233.16 L 227.78 233.64 L 228.07 234.28 L 228.10 235.02 L 227.37 239.46 L 227.10 240.15 L 226.62 240.66 L 225.98 240.96 L 225.24 240.99 L 218.01 239.79 L 217.31 239.53 L 216.80 239.04 L 216.51 238.40 L 216.48 237.66 L 217.21 233.23 L 217.48 232.53 L 217.96 232.02 L 218.60 231.73 L 219.34 231.70 Z" fill="#ffffff" fill-opacity="0.29" fill-rule="nonzero" group-id="5,18,36,51" node-id="453" stroke="none" target-height="9.290009" target-width="11.62001" target-x="216.48" target-y="231.7"></path><path d="M 203.98 239.91 L 211.21 241.10 L 211.90 241.36 L 212.41 241.85 L 212.71 242.49 L 212.73 243.23 L 212.00 247.67 L 211.74 248.36 L 211.25 248.87 L 210.61 249.16 L 209.87 249.19 L 202.64 248.00 L 201.95 247.73 L 201.44 247.25 L 201.14 246.61 L 201.11 245.87 L 201.85 241.43 L 202.11 240.74 L 202.60 240.23 L 203.24 239.93 L 203.98 239.91 Z" fill="#ffffff" fill-opacity="0.29" fill-rule="nonzero" group-id="5,18,36,52" node-id="458" stroke="none" target-height="9.279999" target-width="11.619995" target-x="201.11" target-y="239.91"></path><path d="M 217.62 242.16 L 224.85 243.35 L 225.54 243.61 L 226.05 244.10 L 226.35 244.74 L 226.37 245.48 L 225.64 249.92 L 225.38 250.61 L 224.89 251.12 L 224.25 251.41 L 223.51 251.44 L 216.28 250.25 L 215.59 249.99 L 215.08 249.50 L 214.78 248.86 L 214.75 248.12 L 215.49 243.68 L 215.75 242.99 L 216.24 242.48 L 216.88 242.18 L 217.62 242.16 Z" fill="#ffffff" fill-opacity="0.29" fill-rule="nonzero" group-id="5,18,36,53" node-id="463" stroke="none" target-height="9.279999" target-width="11.619995" target-x="214.75" target-y="242.16"></path><path d="M 232.98 233.95 C 232.49 233.87 232.00 233.99 231.60 234.27 C 231.20 234.56 230.93 234.99 230.85 235.48 L 229.53 243.48 L 229.23 245.28 L 228.39 250.35 C 228.22 251.36 228.91 252.32 229.92 252.49 L 237.15 253.68 C 237.63 253.76 238.13 253.64 238.53 253.36 C 238.93 253.07 239.20 252.64 239.28 252.15 L 240.11 247.07 L 240.41 245.28 L 241.73 237.28 C 241.90 236.27 241.22 235.31 240.21 235.15 Z" fill="#fdb754" fill-rule="nonzero" group-id="5,18,36" node-id="466" stroke="none" target-height="19.89" target-width="13.679993" target-x="228.22" target-y="233.87"></path><path d="M 193.42 229.81 C 193.42 229.81 189.12 227.65 191.88 224.75 C 195.52 220.91 200.36 216.77 203.15 218.26 C 204.92 219.20 199.92 224.57 196.15 228.34" fill="#eda59f" fill-rule="nonzero" group-id="5,18" node-id="469" stroke="none" target-height="13.039993" target-width="15.800003" target-x="189.12" target-y="216.77"></path></g><g node-id="523"><path d="M 84.19 217.39 C 84.20 217.11 84.20 216.84 84.20 216.55 C 84.21 214.73 84.13 212.75 83.95 210.59 L 86.05 210.20 L 99.93 207.63 C 99.65 211.18 99.70 214.75 100.09 218.29 C 100.14 218.69 100.19 219.10 100.25 219.51 C 100.29 219.83 100.34 220.16 100.40 220.48 C 100.46 220.80 100.50 221.11 100.57 221.42 C 100.69 222.08 100.83 222.74 101.00 223.39 C 101.03 223.55 101.07 223.70 101.12 223.85 C 101.12 223.88 101.13 223.90 101.14 223.93 C 101.22 224.26 101.32 224.60 101.43 224.92 C 101.54 225.29 101.66 225.65 101.80 226.01 C 101.84 226.12 101.88 226.24 101.93 226.35 C 102.06 226.71 102.21 227.06 102.37 227.40 C 102.54 227.79 102.73 228.17 102.93 228.54 C 102.93 228.54 102.94 228.54 102.94 228.55 C 103.69 230.03 104.75 231.33 106.05 232.36 L 80.92 232.36 C 82.47 229.68 84.07 225.07 84.19 217.39 Z" fill="#eda59f" fill-rule="nonzero" group-id="5,19" node-id="474" stroke="none" target-height="24.729996" target-width="25.130005" target-x="80.92" target-y="207.63"></path><g node-id="541"><path d="M 102.94 228.56 L 89.67 218.40 L 100.09 218.29 C 100.40 221.86 101.36 225.34 102.94 228.56 Z" fill="#000000" fill-opacity="0.15" fill-rule="nonzero" group-id="5,19,37" node-id="478" stroke="none" target-height="10.270004" target-width="13.270004" target-x="89.67" target-y="218.29"></path></g><path d="M 74.89 202.43 C 75.99 208.81 79.48 214.87 85.11 216.93 C 91.80 219.38 96.76 219.54 104.47 219.54 C 115.00 219.54 114.65 208.57 114.94 197.50 C 115.24 186.40 114.36 174.49 110.20 170.62 C 101.90 162.89 77.53 167.78 74.56 180.70 C 73.03 187.39 73.83 196.35 74.89 202.43 Z" fill="#eda59f" fill-rule="nonzero" group-id="5,19" node-id="481" stroke="none" target-height="56.649994" target-width="42.21" target-x="73.03" target-y="162.89"></path><path d="M 121.45 170.49 C 119.69 164.04 114.20 160.88 105.12 163.25 C 98.67 164.94 97.85 163.43 92.39 160.79 C 89.26 159.29 78.99 159.98 76.45 166.93 C 73.72 174.37 65.30 168.34 64.51 180.47 C 63.86 190.62 65.82 203.81 77.10 212.69 L 77.10 212.69 C 78.90 214.49 80.95 216.04 83.18 217.28 C 84.13 217.85 84.36 217.38 84.70 216.32 C 85.87 212.57 88.25 199.44 87.28 188.75 C 87.12 186.99 87.44 184.26 91.95 184.07 C 96.88 183.86 109.67 184.97 114.20 181.72 C 114.20 181.72 123.21 176.95 121.45 170.49 Z" fill="#0f1011" fill-rule="nonzero" group-id="5,19" node-id="483" stroke="none" target-height="58.560013" target-width="59.35" target-x="63.86" target-y="159.29"></path><path d="M 101.35 196.06 C 101.35 196.86 100.71 197.51 99.91 197.51 C 99.10 197.51 98.46 196.86 98.46 196.06 C 98.46 195.26 99.10 194.61 99.91 194.61 C 100.71 194.61 101.35 195.26 101.35 196.06 Z" fill="#0f1011" fill-rule="nonzero" group-id="5,19,38" node-id="487" stroke="none" target-height="2.899994" target-width="2.8899994" target-x="98.46" target-y="194.61"></path><path d="M 112.78 195.12 C 112.78 195.92 112.14 196.57 111.34 196.57 C 110.54 196.57 109.89 195.92 109.89 195.12 C 109.89 194.32 110.54 193.67 111.34 193.67 C 112.14 193.67 112.78 194.32 112.78 195.12 Z" fill="#0f1011" fill-rule="nonzero" group-id="5,19,38" node-id="489" stroke="none" target-height="2.9000092" target-width="2.8899994" target-x="109.89" target-y="193.67"></path><path d="M 113.85 192.03 L 113.84 192.03 L 110.00 191.98 C 109.63 191.97 109.35 191.67 109.35 191.30 C 109.35 190.93 109.64 190.63 110.01 190.62 L 110.02 190.62 L 113.86 190.67 C 114.23 190.67 114.53 190.98 114.53 191.36 C 114.53 191.73 114.22 192.03 113.85 192.03 Z" fill="#0f1011" fill-rule="nonzero" group-id="5,19,38" node-id="491" stroke="none" target-height="1.4100037" target-width="5.1800003" target-x="109.35" target-y="190.62"></path><path d="M 96.78 193.43 C 96.43 193.43 96.14 193.17 96.10 192.83 C 96.06 192.49 96.28 192.17 96.62 192.09 L 100.40 191.18 C 100.77 191.09 101.14 191.31 101.22 191.68 C 101.31 192.05 101.09 192.41 100.72 192.50 L 96.94 193.41 C 96.88 193.42 96.83 193.43 96.78 193.43 Z" fill="#0f1011" fill-rule="nonzero" group-id="5,19,38" node-id="493" stroke="none" target-height="2.3399963" target-width="5.25" target-x="96.06" target-y="191.09"></path><path d="M 92.37 199.60 C 92.58 201.81 91.59 203.95 89.77 205.22 C 87.95 206.49 85.60 206.68 83.60 205.73 C 81.60 204.77 80.27 202.81 80.12 200.60 C 79.96 198.97 80.47 197.34 81.53 196.10 C 82.59 194.85 84.11 194.08 85.74 193.98 C 90.12 193.84 92.09 196.22 92.37 199.60 Z" fill="#eda59f" fill-rule="nonzero" group-id="5,19" node-id="496" stroke="none" target-height="12.839996" target-width="12.620003" target-x="79.96" target-y="193.84"></path><path d="M 106.34 204.09 C 106.09 204.09 105.88 203.91 105.84 203.67 C 105.81 203.42 105.95 203.19 106.19 203.12 L 109.14 202.21 L 107.08 197.62 C 107.00 197.46 107.02 197.27 107.12 197.12 C 107.23 196.97 107.40 196.89 107.58 196.91 C 107.76 196.93 107.92 197.05 107.99 197.21 L 110.28 202.32 C 110.34 202.45 110.34 202.60 110.28 202.73 C 110.22 202.86 110.11 202.96 109.97 203.00 L 106.48 204.07 C 106.44 204.09 106.39 204.09 106.34 204.09 Z" fill="#000000" fill-opacity="0.15" fill-rule="nonzero" group-id="5,19,39" node-id="500" stroke="none" target-height="7.199997" target-width="4.529999" target-x="105.81" target-y="196.89"></path><path d="M 100.58 207.47 C 100.58 207.47 105.92 208.03 109.67 206.72 C 109.67 206.72 109.64 210.25 105.41 210.59 C 101.18 210.94 100.58 207.47 100.58 207.47 Z" fill="#f8fcff" fill-rule="nonzero" group-id="5,19" node-id="503" stroke="none" target-height="4.220001" target-width="9.089996" target-x="100.58" target-y="206.72"></path></g></g></svg>